<svg width="157" height="25" viewBox="0 0 157 25" fill="none" xmlns="http://www.w3.org/2000/svg">
<path fill-rule="evenodd" clip-rule="evenodd" d="M23.9867 12.7041L23.193 12.5899C18.4706 11.9102 13.6673 13.0644 9.76863 15.8157L8.62948 16.6195C6.43087 18.1711 3.52261 18.1128 1.40271 16.573C1.56128 16.7738 1.7332 16.9674 1.91847 17.1528L7.33422 22.5708C9.90553 25.1432 14.0744 25.1432 16.6458 22.5708L22.0615 17.1528C23.294 15.9197 23.9357 14.3195 23.9867 12.7041Z" fill="url(#paint0_linear_2876_60393)"/>
<path fill-rule="evenodd" clip-rule="evenodd" d="M1.40754 16.5765C-0.629184 13.9913 -0.455538 10.2323 1.92848 7.84732L7.34423 2.42929C9.91554 -0.143096 14.0845 -0.143099 16.6558 2.42929L22.0715 7.84732C24.4143 10.1911 24.6225 13.8617 22.6962 16.4413L22.6759 16.4448C23.5081 15.3364 23.945 14.0253 23.9867 12.704L23.193 12.5898C18.4706 11.9101 13.6673 13.0643 9.76861 15.8156L8.62946 16.6195C6.43253 18.1698 3.52702 18.1128 1.40754 16.5765ZM1.91101 17.1452C1.91682 17.1511 1.92265 17.1569 1.92848 17.1628L2.5489 17.7834C2.549 17.7835 2.54909 17.7836 2.54919 17.7837" fill="url(#paint1_linear_2876_60393)"/>
<path d="M38.842 12.6602C39.6209 12.8169 40.2612 13.237 40.7629 13.9206C41.2646 14.6041 41.5154 15.3874 41.5154 16.2704C41.5154 17.0679 41.3306 17.7728 40.961 18.3852C40.6045 18.9833 40.083 19.4533 39.3965 19.7951C38.71 20.1368 37.8981 20.3077 36.9607 20.3077H31V5.3972H36.7033C37.6406 5.3972 38.446 5.56097 39.1193 5.88852C39.8058 6.21607 40.3207 6.67178 40.6639 7.25567C41.0204 7.83956 41.1986 8.50178 41.1986 9.24232C41.1986 10.111 40.9808 10.8373 40.5451 11.4212C40.1226 12.0051 39.5549 12.4181 38.842 12.6602ZM33.7724 11.5494H36.3072C36.9673 11.5494 37.4756 11.3927 37.8321 11.0794C38.1885 10.7519 38.3667 10.2891 38.3667 9.69092C38.3667 9.09279 38.1885 8.62995 37.8321 8.3024C37.4756 7.97485 36.9673 7.81108 36.3072 7.81108H33.7724V11.5494ZM36.5647 17.8725C37.238 17.8725 37.7595 17.7016 38.1291 17.3598C38.512 17.018 38.7034 16.5338 38.7034 15.9072C38.7034 15.2664 38.5054 14.7679 38.1093 14.4119C37.7132 14.0416 37.1786 13.8565 36.5053 13.8565H33.7724V17.8725H36.5647Z" fill="black"/>
<path d="M54.1216 14.1342C54.1216 14.5614 54.0952 14.9459 54.0424 15.2877H46.0222C46.0882 16.1422 46.3654 16.8115 46.8539 17.2957C47.3424 17.7799 47.9431 18.022 48.656 18.022C49.6858 18.022 50.4185 17.5449 50.8541 16.5908H53.8444C53.5276 17.7301 52.9203 18.67 52.0225 19.4105C51.1248 20.1368 50.0224 20.5 48.7154 20.5C47.6592 20.5 46.7087 20.2508 45.8638 19.7523C45.032 19.2397 44.3785 18.5205 43.9033 17.5948C43.4412 16.6691 43.2101 15.601 43.2101 14.3905C43.2101 13.1658 43.4412 12.0906 43.9033 11.1649C44.3653 10.2392 45.0122 9.52715 45.844 9.0287C46.6757 8.53026 47.6328 8.28104 48.7154 8.28104C49.7584 8.28104 50.6891 8.52314 51.5076 9.00734C52.3394 9.49154 52.9797 10.1822 53.4285 11.0794C53.8906 11.9624 54.1216 12.9806 54.1216 14.1342ZM51.2502 13.2797C51.237 12.5107 50.9796 11.8983 50.4779 11.4426C49.9762 10.9726 49.3623 10.7376 48.6362 10.7376C47.9497 10.7376 47.3688 10.9655 46.8935 11.4212C46.4314 11.8627 46.1476 12.4822 46.042 13.2797H51.2502Z" fill="black"/>
<path d="M59.1157 10.3104C59.4722 9.6838 59.9343 9.19248 60.502 8.83645C61.0828 8.48042 61.7429 8.3024 62.4823 8.3024V11.4426H61.7495C60.8782 11.4426 60.2181 11.6633 59.7692 12.1048C59.3336 12.5463 59.1157 13.3153 59.1157 14.4119V20.3077H56.3433V8.4733H59.1157V10.3104Z" fill="black"/>
<path d="M74.7463 14.1342C74.7463 14.5614 74.7198 14.9459 74.667 15.2877H66.6468C66.7128 16.1422 66.99 16.8115 67.4785 17.2957C67.967 17.7799 68.5677 18.022 69.2806 18.022C70.3104 18.022 71.0431 17.5449 71.4787 16.5908H74.469C74.1522 17.7301 73.5449 18.67 72.6471 19.4105C71.7494 20.1368 70.647 20.5 69.34 20.5C68.2838 20.5 67.3333 20.2508 66.4884 19.7523C65.6566 19.2397 65.0031 18.5205 64.5279 17.5948C64.0658 16.6691 63.8348 15.601 63.8348 14.3905C63.8348 13.1658 64.0658 12.0906 64.5279 11.1649C64.9899 10.2392 65.6368 9.52715 66.4686 9.0287C67.3003 8.53026 68.2574 8.28104 69.34 8.28104C70.383 8.28104 71.3137 8.52314 72.1322 9.00734C72.964 9.49154 73.6043 10.1822 74.0531 11.0794C74.5152 11.9624 74.7463 12.9806 74.7463 14.1342ZM71.8748 13.2797C71.8616 12.5107 71.6042 11.8983 71.1025 11.4426C70.6008 10.9726 69.9869 10.7376 69.2608 10.7376C68.5743 10.7376 67.9934 10.9655 67.5181 11.4212C67.0561 11.8627 66.7722 12.4822 66.6666 13.2797H71.8748Z" fill="black"/>
<path d="M83.4633 20.3077L79.7403 15.2664V20.3077H76.9679V4.5H79.7403V13.4933L83.4237 8.4733H87.0279L82.1959 14.4119L87.0675 20.3077H83.4633Z" fill="black"/>
<path d="M98.9292 14.1342C98.9292 14.5614 98.9028 14.9459 98.85 15.2877H90.8298C90.8958 16.1422 91.173 16.8115 91.6615 17.2957C92.15 17.7799 92.7507 18.022 93.4636 18.022C94.4933 18.022 95.226 17.5449 95.6617 16.5908H98.652C98.3351 17.7301 97.7278 18.67 96.8301 19.4105C95.9323 20.1368 94.83 20.5 93.523 20.5C92.4668 20.5 91.5163 20.2508 90.6713 19.7523C89.8396 19.2397 89.1861 18.5205 88.7108 17.5948C88.2487 16.6691 88.0177 15.601 88.0177 14.3905C88.0177 13.1658 88.2487 12.0906 88.7108 11.1649C89.1729 10.2392 89.8198 9.52715 90.6515 9.0287C91.4833 8.53026 92.4404 8.28104 93.523 8.28104C94.5659 8.28104 95.4967 8.52314 96.3152 9.00734C97.1469 9.49154 97.7872 10.1822 98.2361 11.0794C98.6982 11.9624 98.9292 12.9806 98.9292 14.1342ZM96.0578 13.2797C96.0446 12.5107 95.7871 11.8983 95.2854 11.4426C94.7838 10.9726 94.1699 10.7376 93.4438 10.7376C92.7573 10.7376 92.1764 10.9655 91.7011 11.4212C91.239 11.8627 90.9552 12.4822 90.8496 13.2797H96.0578Z" fill="black"/>
<path d="M113.91 12.6602C114.689 12.8169 115.329 13.237 115.831 13.9206C116.332 14.6041 116.583 15.3874 116.583 16.2704C116.583 17.0679 116.398 17.7728 116.029 18.3852C115.672 18.9833 115.151 19.4533 114.464 19.7951C113.778 20.1368 112.966 20.3077 112.028 20.3077H106.068V5.3972H111.771C112.708 5.3972 113.514 5.56097 114.187 5.88852C114.873 6.21607 115.388 6.67178 115.732 7.25567C116.088 7.83956 116.266 8.50178 116.266 9.24232C116.266 10.111 116.048 10.8373 115.613 11.4212C115.19 12.0051 114.623 12.4181 113.91 12.6602ZM108.84 11.5494H111.375C112.035 11.5494 112.543 11.3927 112.9 11.0794C113.256 10.7519 113.434 10.2891 113.434 9.69092C113.434 9.09279 113.256 8.62995 112.9 8.3024C112.543 7.97485 112.035 7.81108 111.375 7.81108H108.84V11.5494ZM111.632 17.8725C112.306 17.8725 112.827 17.7016 113.197 17.3598C113.58 17.018 113.771 16.5338 113.771 15.9072C113.771 15.2664 113.573 14.7679 113.177 14.4119C112.781 14.0416 112.246 13.8565 111.573 13.8565H108.84V17.8725H111.632Z" fill="black"/>
<path d="M118.278 14.3478C118.278 13.1515 118.496 12.0906 118.931 11.1649C119.38 10.2392 119.981 9.52715 120.733 9.0287C121.499 8.53026 122.351 8.28104 123.288 8.28104C124.106 8.28104 124.819 8.45906 125.427 8.81509C126.047 9.17112 126.542 9.61971 126.912 10.1609V8.4733H129.704V20.3077H126.912V18.5774C126.555 19.1328 126.06 19.5957 125.427 19.966C124.806 20.322 124.087 20.5 123.268 20.5C122.344 20.5 121.499 20.2437 120.733 19.731C119.981 19.2183 119.38 18.4991 118.931 17.5734C118.496 16.6335 118.278 15.5583 118.278 14.3478ZM126.912 14.3905C126.912 13.6642 126.78 13.0447 126.516 12.532C126.252 12.0051 125.895 11.6064 125.446 11.3358C124.998 11.051 124.516 10.9085 124.001 10.9085C123.486 10.9085 123.011 11.0438 122.575 11.3144C122.139 11.585 121.783 11.9838 121.506 12.5107C121.242 13.0234 121.11 13.6357 121.11 14.3478C121.11 15.0599 121.242 15.6865 121.506 16.2276C121.783 16.7546 122.139 17.1604 122.575 17.4453C123.024 17.7301 123.499 17.8725 124.001 17.8725C124.516 17.8725 124.998 17.7372 125.446 17.4666C125.895 17.1818 126.252 16.783 126.516 16.2704C126.78 15.7434 126.912 15.1168 126.912 14.3905Z" fill="black"/>
<path d="M138.689 8.3024C139.996 8.3024 141.053 8.751 141.858 9.6482C142.663 10.5312 143.066 11.7701 143.066 13.3652V20.3077H140.294V13.771C140.294 12.8311 140.076 12.1119 139.64 11.6135C139.204 11.1008 138.61 10.8445 137.858 10.8445C137.092 10.8445 136.485 11.1008 136.036 11.6135C135.6 12.1119 135.382 12.8311 135.382 13.771V20.3077H132.61V8.4733H135.382V9.94726C135.752 9.43458 136.221 9.03583 136.788 8.751C137.369 8.45194 138.003 8.3024 138.689 8.3024Z" fill="black"/>
<path d="M152.396 20.3077L148.673 15.2664V20.3077H145.9V4.5H148.673V13.4933L152.356 8.4733H155.96L151.128 14.4119L156 20.3077H152.396Z" fill="black"/>
<defs>
<linearGradient id="paint0_linear_2876_60393" x1="11.0375" y1="13.0988" x2="13.2305" y2="26.5348" gradientUnits="userSpaceOnUse">
<stop offset="0.0728766" stop-color="#64C362"/>
<stop offset="0.928335" stop-color="#43B741"/>
</linearGradient>
<linearGradient id="paint1_linear_2876_60393" x1="15.6831" y1="17.9018" x2="10.0447" y2="-1.18674" gradientUnits="userSpaceOnUse">
<stop offset="0.184202" stop-color="#C6E9C6"/>
<stop offset="1" stop-color="#43B741"/>
</linearGradient>
</defs>
</svg>
